<svg xmlns="http://www.w3.org/2000/svg" width="211" height="211" viewBox="0 0 211 211">
  <g id="Group_1" data-name="Group 1" transform="translate(-15721 3872)">
    <rect id="Rectangle_604" data-name="Rectangle 604" width="211" height="211" transform="translate(15721 -3872)" fill="#1769ff"/>
    <path id="Exclusion_1" data-name="Exclusion 1" d="M78.77,88.77H10a10.011,10.011,0,0,1-10-10V10A10.011,10.011,0,0,1,10,0H78.77a10.011,10.011,0,0,1,10,10V78.77A10.011,10.011,0,0,1,78.77,88.77ZM31.084,66.5h.042a22.278,22.278,0,0,0,5.653-.73,15.309,15.309,0,0,0,4.934-2.254,11.1,11.1,0,0,0,3.444-3.928,12.04,12.04,0,0,0,1.278-5.7,12.1,12.1,0,0,0-1.981-6.977,10.516,10.516,0,0,0-6-4.051,10.885,10.885,0,0,0,4.415-3.594,9.579,9.579,0,0,0,1.494-5.483,11.718,11.718,0,0,0-1.006-5.119,8.429,8.429,0,0,0-2.834-3.321,12.238,12.238,0,0,0-4.385-1.8A27.321,27.321,0,0,0,30.47,23H10V66.5ZM63.771,33.363a16.4,16.4,0,0,0-6.55,1.279,15.232,15.232,0,0,0-8.379,8.77,18.464,18.464,0,0,0-1.156,6.578,19.323,19.323,0,0,0,1.125,6.7,15.233,15.233,0,0,0,3.2,5.238,14.006,14.006,0,0,0,5.057,3.382,18.079,18.079,0,0,0,6.7,1.187,16.578,16.578,0,0,0,9.139-2.439c2.509-1.618,4.4-4.343,5.606-8.1H70.9a5.446,5.446,0,0,1-2.315,2.773,7.763,7.763,0,0,1-4.508,1.309,7.763,7.763,0,0,1-5.606-1.889c-1.293-1.252-2.008-3.3-2.127-6.079H79.065a22.388,22.388,0,0,0-.611-7.007,17.223,17.223,0,0,0-2.772-5.971,14.04,14.04,0,0,0-4.9-4.174A15.049,15.049,0,0,0,63.771,33.363ZM54.86,25.207v4.877H72.441V25.207ZM19.57,59.066h0V47.125H29.985a8.089,8.089,0,0,1,5,1.432c1.254.948,1.889,2.556,1.889,4.781a6.021,6.021,0,0,1-.58,2.8,4.656,4.656,0,0,1-1.555,1.736,6.651,6.651,0,0,1-2.254.914,12.829,12.829,0,0,1-2.629.273H29.8ZM70.414,46.571H56.342a9.864,9.864,0,0,1,.4-2.069,6.376,6.376,0,0,1,1.156-2.192,6.613,6.613,0,0,1,2.192-1.736,7.568,7.568,0,0,1,3.441-.7,6.109,6.109,0,0,1,4.723,1.7,10.117,10.117,0,0,1,2.165,4.99ZM19.57,40.612h0V30.437h9.009a14.056,14.056,0,0,1,2.41.212,6.217,6.217,0,0,1,2.1.76,4.056,4.056,0,0,1,1.463,1.524,5.08,5.08,0,0,1,.549,2.5,4.608,4.608,0,0,1-1.643,3.958,6.927,6.927,0,0,1-4.2,1.218Z" transform="translate(15782 -3811)" fill="#fff"/>
  </g>
</svg>
