<svg xmlns="http://www.w3.org/2000/svg" width="21.673" height="21.674" viewBox="0 0 21.673 21.674">
  <path id="Icon_ionic-logo-linkedin" data-name="Icon ionic-logo-linkedin" d="M24.44,4.5H6.352A1.768,1.768,0,0,0,4.5,6.188V24.317a1.907,1.907,0,0,0,1.852,1.857H24.435a1.81,1.81,0,0,0,1.739-1.857V6.188A1.662,1.662,0,0,0,24.44,4.5ZM11.218,22.567H8.113V12.912h3.105ZM9.773,11.444H9.75A1.594,1.594,0,0,1,8.113,9.779,1.6,1.6,0,0,1,9.79,8.113a1.6,1.6,0,0,1,1.66,1.666A1.6,1.6,0,0,1,9.773,11.444ZM22.566,22.567H19.461V17.288c0-1.265-.452-2.128-1.575-2.128a1.7,1.7,0,0,0-1.592,1.146,2.091,2.091,0,0,0-.107.762v5.5H13.081V12.912h3.105v1.344a3.143,3.143,0,0,1,2.8-1.57c2.038,0,3.579,1.344,3.579,4.24v5.64Z" transform="translate(-4.5 -4.5)" fill="#2eaee9"/>
</svg>
