<svg xmlns="http://www.w3.org/2000/svg" width="222" height="223" viewBox="0 0 222 223">
  <g id="medium" transform="translate(-804.881)">
    <rect id="Rectangle_93" data-name="Rectangle 93" width="222" height="223" transform="translate(804.881)" fill="#111"/>
    <g id="medium-seeklogo.com" transform="translate(864.488 82.313)">
      <path id="Path_1172" data-name="Path 1172" d="M28.988,0A29.187,29.187,0,1,1,0,29.187,29.088,29.088,0,0,1,28.988,0ZM75.281,1.71c8,0,14.494,12.3,14.494,27.478h0c0,15.173-6.489,27.477-14.494,27.477S60.788,44.36,60.788,29.187,67.276,1.71,75.281,1.71Zm22.4,2.862c2.815,0,5.1,11.021,5.1,24.616S100.5,53.8,97.685,53.8s-5.1-11.021-5.1-24.616S94.871,4.572,97.685,4.572Z" transform="translate(0 0)" fill="#fff"/>
    </g>
  </g>
</svg>
